<svg xmlns="http://www.w3.org/2000/svg" viewBox="0 0 512 512" width="512" height="512">
  <defs>
    <clipPath id="round">
      <rect width="512" height="512" rx="112"/>
    </clipPath>
  </defs>
  <g clip-path="url(#round)">
    <rect width="512" height="512" fill="#1b7d92"/>
  </g>

  <!-- yellow hard hat -->
  <path fill="#F5C518" d="M96 250c0-78 72-142 160-142s160 64 160 142v14H96v-14z"/>
  <path fill="#F5C518" d="M70 252c0-10 8-18 18-18h336c10 0 18 8 18 18 0 16-13 29-29 29H99c-16 0-29-13-29-29z"/>
  <rect x="228" y="118" width="56" height="36" rx="10" fill="#E0A800"/>
  <rect x="236" y="232" width="40" height="12" rx="6" fill="#1b7d92"/>

  <!-- white wrench (left-bottom) -->
  <g transform="translate(168 380) rotate(-38)" fill="#ffffff">
    <rect x="-14" y="-8" width="150" height="28" rx="14"/>
    <circle cx="-48" cy="6" r="42" fill="#ffffff"/>
    <circle cx="-48" cy="6" r="16" fill="#1b7d92"/>
    <rect x="-92" y="-6" width="32" height="24" fill="#1b7d92"/>
  </g>

  <!-- white screwdriver (right-bottom) -->
  <g transform="translate(344 380) rotate(38)" fill="#ffffff">
    <rect x="-12" y="-16" width="24" height="150" rx="10"/>
    <path d="M-10 132 h20 l-7 36 h-6 z"/>
    <rect x="-20" y="-58" width="40" height="54" rx="12"/>
    <rect x="-12" y="-46" width="24" height="10" rx="3" fill="#F5C518"/>
  </g>
</svg>
